<?xml version="1.0" encoding="UTF-8" standalone="no"?>
<!-- Created with Inkscape (http://www.inkscape.org/) -->

<svg
   xmlns:dc="http://purl.org/dc/elements/1.1/"
   xmlns:cc="http://creativecommons.org/ns#"
   xmlns:rdf="http://www.w3.org/1999/02/22-rdf-syntax-ns#"
   xmlns:svg="http://www.w3.org/2000/svg"
   xmlns="http://www.w3.org/2000/svg"
   xmlns:sodipodi="http://sodipodi.sourceforge.net/DTD/sodipodi-0.dtd"
   xmlns:inkscape="http://www.inkscape.org/namespaces/inkscape"
   id="svg2985"
   version="1.1"
   inkscape:version="0.48.5 r10040"
   width="999.99994"
   height="287.07214"
   xml:space="preserve"
   sodipodi:docname="godaddy-pick-the-perfect-domain-name-worksheet.pdf"><metadata
     id="metadata2991"><rdf:RDF><cc:Work
         rdf:about=""><dc:format>image/svg+xml</dc:format><dc:type
           rdf:resource="http://purl.org/dc/dcmitype/StillImage" /><dc:title></dc:title></cc:Work></rdf:RDF></metadata><defs
     id="defs2989"><clipPath
       clipPathUnits="userSpaceOnUse"
       id="clipPath3001"><path
         d="M 0,612 792,612 792,0 0,0 0,612 z"
         id="path3003"
         inkscape:connector-curvature="0" /></clipPath><clipPath
       clipPathUnits="userSpaceOnUse"
       id="clipPath3009"><path
         d="m 53.96,6.899 142.733,0 0,72.216 -142.733,0 0,-72.216 z"
         id="path3011"
         inkscape:connector-curvature="0" /></clipPath></defs><sodipodi:namedview
     pagecolor="#ffffff"
     bordercolor="#666666"
     borderopacity="1"
     objecttolerance="10"
     gridtolerance="10"
     guidetolerance="10"
     inkscape:pageopacity="0"
     inkscape:pageshadow="2"
     inkscape:window-width="1033"
     inkscape:window-height="1034"
     id="namedview2987"
     showgrid="false"
     fit-margin-top="0"
     fit-margin-left="0"
     fit-margin-right="0"
     fit-margin-bottom="0"
     inkscape:zoom="0.25215993"
     inkscape:cx="1292.5253"
     inkscape:cy="108.34357"
     inkscape:window-x="882"
     inkscape:window-y="-16"
     inkscape:window-maximized="0"
     inkscape:current-layer="g3007" /><g
     id="g2993"
     inkscape:groupmode="layer"
     inkscape:label="godaddy-pick-the-perfect-domain-name-worksheet"
     transform="matrix(1.25,0,0,-1.25,-91.05886,326.28102)"><g
       id="g2995"
       transform="matrix(7.4597426,0,0,7.4597426,-470.57348,-202.62339)"><g
         id="g2997"><g
           id="g2999"
           clip-path="url(#clipPath3001)"><g
             id="g3005"><g
               id="g3007"
               clip-path="url(#clipPath3009)"><g
                 id="g3013"
                 transform="matrix(1.0300686,0,0,1.0300686,115.10628,41.244634)"><path
                   d="m 0,0 c 0,1.112 -0.874,2.025 -1.985,2.025 -1.112,0 -1.986,-0.913 -1.986,-2.025 0,-1.112 0.874,-2.005 1.986,-2.005 C -0.874,-2.005 0,-1.112 0,0 m 3.454,-0.02 c 0,-2.879 -2.422,-5.182 -5.439,-5.182 -3.018,0 -5.44,2.303 -5.44,5.182 0,2.899 2.422,5.241 5.44,5.241 3.017,0 5.439,-2.342 5.439,-5.241"
                   style="fill:#111111;fill-opacity:1;fill-rule:nonzero;stroke:none"
                   id="path3015"
                   inkscape:connector-curvature="0" /></g><g
                 id="g3017"
                 transform="matrix(1.0300686,0,0,1.0300686,129.82164,43.391915)"><path
                   d="m 0,0 c 0,1.946 -1.35,3.633 -3.335,3.633 l -2.76,0 0,-7.346 2.76,0 C -1.35,-3.713 0,-1.946 0,0 m 3.732,0 c 0,-4.149 -2.898,-6.989 -6.988,-6.989 l -5.916,0 c -0.278,0 -0.497,0.219 -0.497,0.497 l 0,12.924 c 0,0.259 0.219,0.477 0.497,0.477 l 5.916,0 c 4.09,0 6.988,-2.76 6.988,-6.909"
                   style="fill:#111111;fill-opacity:1;fill-rule:nonzero;stroke:none"
                   id="path3019"
                   inkscape:connector-curvature="0" /></g><g
                 id="g3021"
                 transform="matrix(1.0300686,0,0,1.0300686,139.61728,39.158642)"><path
                   d="M 0,0 C 1.112,0 1.985,0.913 1.985,2.025 1.985,3.137 1.112,4.05 0,4.05 -1.112,4.05 -1.985,3.137 -1.985,2.025 -1.985,0.913 -1.112,0 0,0 m -0.516,7.247 c 1.171,0 2.104,-0.437 2.521,-1.053 l 0,0.298 c 0,0.258 0.219,0.457 0.457,0.457 l 2.482,0 C 5.202,6.949 5.4,6.75 5.4,6.492 l 0,-8.914 C 5.4,-2.68 5.202,-2.879 4.944,-2.879 l -2.482,0 c -0.258,0 -0.457,0.199 -0.457,0.457 l 0,0.298 c -0.417,-0.616 -1.37,-1.052 -2.541,-1.052 -2.502,0 -4.904,2.005 -4.904,5.241 0,3.236 2.422,5.182 4.924,5.182"
                   style="fill:#111111;fill-opacity:1;fill-rule:nonzero;stroke:none"
                   id="path3023"
                   inkscape:connector-curvature="0" /></g><g
                 id="g3025"
                 transform="matrix(1.0300686,0,0,1.0300686,151.25397,39.158642)"><path
                   d="M 0,0 C 1.112,0 1.985,0.913 1.985,2.025 1.985,3.137 1.112,4.05 0,4.05 -1.112,4.05 -1.985,3.137 -1.985,2.025 -1.985,0.913 -1.112,0 0,0 m -0.596,7.247 c 1.211,0 2.144,-0.457 2.561,-0.993 l 0,4.308 c 0,0.258 0.219,0.457 0.457,0.457 l 2.521,0 c 0.258,0 0.457,-0.199 0.457,-0.457 l 0,-12.984 C 5.4,-2.68 5.201,-2.879 4.943,-2.879 l -2.481,0 c -0.258,0 -0.457,0.199 -0.457,0.457 l 0,0.298 c -0.496,-0.616 -1.37,-1.052 -2.541,-1.052 -2.502,0 -4.904,2.005 -4.904,5.241 0,3.236 2.382,5.182 4.844,5.182"
                   style="fill:#111111;fill-opacity:1;fill-rule:nonzero;stroke:none"
                   id="path3027"
                   inkscape:connector-curvature="0" /></g><g
                 id="g3029"
                 transform="matrix(1.0300686,0,0,1.0300686,162.89045,39.158642)"><path
                   d="M 0,0 C 1.112,0 1.985,0.913 1.985,2.025 1.985,3.137 1.112,4.05 0,4.05 -1.112,4.05 -1.985,3.137 -1.985,2.025 -1.985,0.913 -1.112,0 0,0 m -0.596,7.247 c 1.211,0 2.144,-0.457 2.561,-0.993 l 0,4.308 c 0,0.258 0.219,0.457 0.457,0.457 l 2.521,0 c 0.258,0 0.457,-0.199 0.457,-0.457 l 0,-12.984 C 5.4,-2.68 5.201,-2.879 4.943,-2.879 l -2.481,0 c -0.258,0 -0.457,0.199 -0.457,0.457 l 0,0.298 c -0.496,-0.616 -1.37,-1.052 -2.541,-1.052 -2.502,0 -4.904,2.005 -4.904,5.241 0,3.236 2.382,5.182 4.844,5.182"
                   style="fill:#111111;fill-opacity:1;fill-rule:nonzero;stroke:none"
                   id="path3031"
                   inkscape:connector-curvature="0" /></g><g
                 id="g3033"
                 transform="matrix(1.0300686,0,0,1.0300686,177.00125,34.721003)"><path
                   d="m 0,0 c -0.615,-2.085 -2.065,-3.256 -4.328,-3.256 -1.231,0 -2.422,0.417 -3.197,1.092 -0.119,0.119 -0.198,0.278 -0.198,0.417 0,0.119 0.059,0.278 0.159,0.417 l 0.933,1.429 c 0.139,0.199 0.357,0.218 0.397,0.218 0.218,0 0.318,-0.059 0.516,-0.198 0.298,-0.199 0.695,-0.437 1.152,-0.437 0.377,0 0.893,0.159 1.072,0.755 l 0.317,0.992 -1.508,0 c -0.318,0 -0.517,0.219 -0.596,0.477 l -2.521,8.576 c -0.06,0.219 -0.08,0.338 -0.08,0.417 0,0.199 0.139,0.358 0.417,0.358 l 2.978,0 c 0.258,0 0.417,-0.238 0.477,-0.477 l 1.648,-6.154 0.119,0 1.33,6.154 c 0.059,0.239 0.218,0.477 0.476,0.477 l 3.018,0 c 0.278,0 0.417,-0.159 0.417,-0.358 0,-0.079 -0.02,-0.198 -0.08,-0.417 L 0,0 z"
                   style="fill:#111111;fill-opacity:1;fill-rule:nonzero;stroke:none"
                   id="path3035"
                   inkscape:connector-curvature="0" /></g><g
                 id="g3037"
                 transform="matrix(1.0300686,0,0,1.0300686,103.81745,38.176987)"><path
                   d="m 0,0 c -1.191,-1.668 -3.177,-2.224 -4.924,-2.224 -4.03,0 -7.008,3.038 -7.008,7.247 0,4.03 3.216,7.246 7.425,7.246 3.117,0 5.619,-1.33 6.75,-3.871 C 2.382,8.1 2.482,7.624 1.648,7.465 L -0.556,7.068 c -0.516,-0.099 -0.794,0.238 -0.893,0.377 -0.655,0.894 -1.708,1.509 -2.978,1.509 -2.204,0 -3.772,-1.688 -3.772,-3.951 0,-2.501 1.786,-3.951 3.712,-3.951 1.291,0 2.363,0.497 3.058,1.41 l -1.946,0 c -0.278,0 -0.496,0.218 -0.496,0.496 l 0,1.866 c 0,0.278 0.218,0.497 0.496,0.497 l 5.936,0 c 0.278,0 0.496,-0.219 0.496,-0.497 l 0,-6.253 c 0,-0.278 -0.218,-0.497 -0.496,-0.497 l -2.065,0 C 0.218,-1.926 0,-1.707 0,-1.429 L 0,0 z"
                   style="fill:#111111;fill-opacity:1;fill-rule:nonzero;stroke:none"
                   id="path3039"
                   inkscape:connector-curvature="0" /></g><g
                 id="g3041"
                 transform="matrix(1.0300686,0,0,1.0300686,80.468578,59.528249)"><path
                   d="M 0,0 C -0.006,0.039 -0.008,0.081 -0.008,0.124 -0.021,0.735 0.56,1.405 0.578,2.085 l 0.004,0.003 0,0.016 C 0.576,2.224 0.491,2.303 0.408,2.34 0.322,2.379 0.222,2.395 0.111,2.395 -0.154,2.391 -0.485,2.296 -0.662,2.025 -0.949,1.426 -1.405,0.796 -1.409,0.147 c -0.002,-0.206 0.05,-0.414 0.172,-0.611 0.25,-0.554 0.59,-1.051 0.852,-1.645 0.046,-0.108 0.067,-0.205 0.067,-0.295 0,-0.178 -0.08,-0.343 -0.221,-0.502 -0.043,-0.059 -0.33,-0.047 -0.476,-0.285 l -0.006,-0.015 -0.003,-0.017 c -0.006,-0.031 -0.009,-0.06 -0.009,-0.09 0.002,-0.249 0.196,-0.405 0.405,-0.486 0.123,-0.047 0.239,-0.065 0.354,-0.065 0.44,0.002 0.811,0.275 1.004,0.585 0.144,0.244 0.204,0.487 0.204,0.725 C 0.919,-1.63 0.099,-0.82 0,0"
                   style="fill:#ef6c0f;fill-opacity:1;fill-rule:nonzero;stroke:none"
                   id="path3043"
                   inkscape:connector-curvature="0" /></g><g
                 id="g3045"
                 transform="matrix(1.0300686,0,0,1.0300686,83.941454,58.369937)"><path
                   d="m 0,0 c -0.474,0.681 -0.547,0.783 -0.803,1.3 -0.06,0.123 -0.176,0.308 -0.176,0.52 0.004,0.163 0.061,0.347 0.296,0.558 0.133,0.121 0.182,0.306 0.182,0.494 0,0.226 -0.076,0.468 -0.26,0.623 C -0.938,3.614 -1.094,3.673 -1.244,3.673 -1.56,3.67 -1.761,3.425 -1.906,3.137 -2.055,2.84 -2.166,2.467 -2.279,2.118 -2.323,1.974 -2.345,1.833 -2.345,1.694 c 0.016,-1.055 1.147,-1.877 1.395,-2.856 0.029,-0.099 0.042,-0.198 0.042,-0.29 0,-0.232 -0.079,-0.468 -0.177,-0.735 -0.028,-0.074 -0.043,-0.149 -0.043,-0.217 0.003,-0.321 0.29,-0.491 0.548,-0.491 l 0.003,0 c 0.144,0 0.298,0.052 0.409,0.168 C 0.366,-2.176 0.57,-1.71 0.57,-1.294 0.568,-0.767 0.255,-0.368 0,0"
                   style="fill:#ef6c0f;fill-opacity:1;fill-rule:nonzero;stroke:none"
                   id="path3047"
                   inkscape:connector-curvature="0" /></g><g
                 id="g3049"
                 transform="matrix(1.0300686,0,0,1.0300686,74.363361,58.464086)"><path
                   d="m 0,0 c -0.094,0.187 -0.123,0.408 -0.123,0.645 0,0.316 0.055,0.66 0.055,0.988 0,0.188 -0.016,0.369 -0.077,0.538 C -0.2,2.309 -0.335,2.345 -0.447,2.345 -0.75,2.334 -1.187,2.123 -1.299,1.719 -1.35,1.259 -1.47,0.76 -1.472,0.295 -1.473,-0.119 -1.352,-0.501 -1.02,-0.817 -0.508,-1.306 0.033,-1.691 0.336,-2.12 0.46,-2.295 0.531,-2.429 0.533,-2.584 0.533,-2.688 0.506,-2.796 0.458,-2.914 0.375,-3.055 0.16,-3.373 0.123,-3.597 L 0.12,-3.613 0.123,-3.631 c 0,-0.105 0.104,-0.214 0.2,-0.214 0.006,0 0.011,0.002 0.018,0.002 0.117,0.006 0.2,0.048 0.298,0.048 0.008,0 0.014,0 0.016,-10e-4 l 0.007,0 0.008,0 0.043,0 c 0.587,10e-4 0.97,0.473 1.07,0.906 0.022,0.102 0.028,0.197 0.028,0.289 C 1.789,-1.427 0.421,-0.872 0,0"
                   style="fill:#ef6c0f;fill-opacity:1;fill-rule:nonzero;stroke:none"
                   id="path3051"
                   inkscape:connector-curvature="0" /></g><g
                 id="g3053"
                 transform="matrix(1.0300686,0,0,1.0300686,77.899484,58.691834)"><path
                   d="m 0,0 c -0.435,0.722 -1.034,1.372 -1.097,2.08 0.002,0.002 0.002,0.008 0.026,0.021 0.088,0.074 0.387,0.106 0.586,0.187 0.122,0.033 0.287,0.1 0.431,0.187 0.138,0.089 0.281,0.18 0.293,0.368 C 0.24,2.928 0.188,3.012 0.115,3.064 -0.119,3.202 -0.375,3.261 -0.631,3.261 -1.403,3.259 -2.214,2.743 -2.411,2.004 -2.438,1.887 -2.455,1.772 -2.455,1.661 c 0.02,-1.097 1.25,-1.868 1.563,-2.856 L -0.89,-1.2 c 0.043,-0.121 0.06,-0.233 0.061,-0.35 0,-0.212 -0.061,-0.432 -0.134,-0.682 -0.02,-0.05 -0.025,-0.106 -0.025,-0.157 -0.005,-0.136 0.07,-0.252 0.17,-0.311 0.098,-0.061 0.215,-0.086 0.335,-0.086 0.229,0.003 0.478,0.081 0.63,0.247 0.258,0.332 0.36,0.686 0.359,1.031 C 0.506,-0.958 0.263,-0.43 0,0"
                   style="fill:#ef6c0f;fill-opacity:1;fill-rule:nonzero;stroke:none"
                   id="path3055"
                   inkscape:connector-curvature="0" /></g><g
                 id="g3057"
                 transform="matrix(1.0300686,0,0,1.0300686,86.624989,38.988681)"><path
                   d="M 0,0 C -0.014,0 -0.033,0.001 -0.048,0.003"
                   style="fill:#22201f;fill-opacity:1;fill-rule:nonzero;stroke:none"
                   id="path3059"
                   inkscape:connector-curvature="0" /></g><g
                 id="g3061"
                 transform="matrix(1.0300686,0,0,1.0300686,75.404452,45.788782)"><path
                   d="M 0,0 C 0.002,0.267 0.091,0.575 0.223,0.742 0.329,0.874 0.456,1.021 0.628,1.169 L 0.779,0.536 C 0.455,0.375 0.205,0.196 0,0 m 14.071,3.576 c -0.52,0.271 -1.199,0.423 -1.948,0.423 -0.01,0 -0.018,-10e-4 -0.028,-10e-4 C 11.403,5.733 10.526,7.028 9.481,7.846 8.151,8.878 6.438,9.424 4.528,9.424 3.579,9.424 2.6,9.279 1.622,9.026 1.552,9.211 1.484,9.398 1.401,9.569 1.36,9.654 1.223,9.704 1.129,9.624 1.045,9.545 0.975,9.397 1.013,9.233 1.039,9.108 1.039,8.983 1.032,8.859 0.49,8.69 -0.05,8.499 -0.58,8.257 L -0.852,8.13 C -0.941,8.089 -0.988,7.992 -0.966,7.897 L -0.624,6.453 C -0.772,6.319 -0.921,6.179 -1.079,6.059 -1.222,5.956 -1.241,5.649 -1.121,5.614 -0.877,5.551 -0.639,5.526 -0.403,5.523 L -0.05,4.031 C -0.055,4.017 -0.059,4.003 -0.065,3.989 -0.105,3.89 -0.166,3.789 -0.2,3.71 -0.282,3.527 -0.123,3.315 -0.027,3.37 0.014,3.394 0.048,3.427 0.087,3.454 L 0.475,1.815 C 0.13,1.579 -0.097,1.328 -0.259,1.112 -0.505,0.785 -0.606,0.371 -0.609,-0.019 c 0,-0.224 0.035,-0.44 0.125,-0.637 0.004,-0.008 0.013,-0.015 0.017,-0.024 -0.092,-0.248 -0.135,-0.508 -0.134,-0.772 0,-0.103 0.007,-0.211 0.016,-0.32 0.044,-0.584 0.403,-1.028 0.865,-1.287 0.415,-0.232 0.917,-0.343 1.437,-0.368 l 1.585,-6.688 c 0.015,-0.062 0.058,-0.114 0.117,-0.14 0.026,-0.012 0.055,-0.018 0.084,-0.018 0.034,0 0.068,0.009 0.098,0.025 l 0.419,0.229 c 0.394,0.216 1.026,0.586 1.803,1.126 0.278,0.193 0.521,0.272 0.871,0.275 0.278,0 0.593,-0.082 0.958,-0.179 0.47,-0.125 1.003,-0.266 1.624,-0.271 0.264,0 0.531,0.029 0.793,0.088 0.677,0.148 1.23,0.551 1.519,1.105 0.192,0.364 0.29,0.781 0.293,1.241 0,0.129 -0.01,0.227 -0.015,0.289 -0.015,0.656 -0.361,1.347 -0.696,2.016 l -0.107,0.215 c -0.575,1.107 -0.686,1.518 -0.679,1.671 10e-4,0.015 0.002,0.028 -0.002,0.03 0.123,0.095 0.638,0.286 1.309,0.447 0.305,0.076 0.596,0.151 0.835,0.229 0.119,0.042 0.236,0.085 0.346,0.151 0.078,0.042 0.144,0.094 0.213,0.167 0.109,0.125 0.169,0.28 0.169,0.438 -0.002,0.351 -0.072,0.996 -0.229,1.797 0.389,0.071 0.746,0.182 1.046,0.336 0.508,0.265 0.903,0.673 0.912,1.213 -0.009,0.541 -0.404,0.944 -0.912,1.211"
                   style="fill:#111111;fill-opacity:1;fill-rule:nonzero;stroke:none"
                   id="path3063"
                   inkscape:connector-curvature="0" /></g><g
                 id="g3065"
                 transform="matrix(1.0300686,0,0,1.0300686,76.213674,49.971479)"><path
                   d="M 0,0 C 0.124,0.15 0.254,0.318 0.397,0.512 L 0.43,0.555 c 0.134,0.178 0.286,0.379 0.437,0.379 0.005,0 0.011,0 0.016,-0.001 C 1.319,0.887 1.628,0.673 1.987,0.425 2.084,0.358 2.185,0.288 2.294,0.219 2.36,0.175 2.426,0.126 2.49,0.078 2.679,-0.064 2.875,-0.211 3.106,-0.211 l 0,0 c 0.031,0 0.063,0.003 0.094,0.008 l 10e-4,0 c 0.07,0 0.11,0.076 0.153,0.156 0.022,0.041 0.045,0.084 0.073,0.118 L 3.431,0.076 3.433,0.081 C 3.471,0.166 3.419,0.252 3.388,0.304 3.382,0.314 3.377,0.323 3.373,0.33 3.341,0.394 3.313,0.454 3.286,0.511 3.193,0.708 3.112,0.878 2.954,1.084 2.773,1.317 2.604,1.547 2.44,1.768 2.347,1.894 2.254,2.021 2.158,2.149 2.376,2.32 2.612,2.399 2.862,2.483 2.977,2.522 3.097,2.562 3.214,2.612 3.313,2.649 3.379,2.819 3.352,2.968 3.334,3.054 3.272,3.12 3.22,3.152 L 3.211,3.158 3.201,3.159 C 2.941,3.181 2.7,3.244 2.393,3.368 2.244,3.401 2.103,3.403 1.966,3.405 1.769,3.408 1.582,3.41 1.395,3.494 1.307,3.536 1.276,3.68 1.249,3.808 1.241,3.843 1.234,3.877 1.226,3.908 1.207,3.976 1.187,4.042 1.166,4.108 1.157,4.138 1.147,4.167 1.138,4.197 2.054,4.426 2.929,4.542 3.742,4.542 5.471,4.542 7.009,4.056 8.189,3.136 9.053,2.465 9.805,1.378 10.428,-0.095 10.018,-0.163 9.664,-0.27 9.375,-0.414 9.019,-0.587 8.746,-0.837 8.587,-1.14 8.532,-1.132 8.479,-1.13 8.429,-1.129 8.275,-1.131 8.126,-1.155 8.016,-1.177 7.774,-0.145 6.698,0.6 5.439,0.602 4.095,0.6 2.983,-0.243 2.835,-1.364 1.879,-1.404 1.092,-1.552 0.43,-1.816 L 0,0 z"
                   style="fill:#ffffff;fill-opacity:1;fill-rule:nonzero;stroke:none"
                   id="path3067"
                   inkscape:connector-curvature="0" /></g><g
                 id="g3069"
                 transform="matrix(1.0300686,0,0,1.0300686,75.351609,53.611844)"><path
                   d="M 0,0 C 0.276,0.12 0.557,0.223 0.823,0.317 0.787,0.204 0.754,0.096 0.726,-0.012 0.7,-0.059 0.648,-0.102 0.598,-0.143 0.585,-0.153 0.546,-0.186 0.546,-0.186 l 0,-0.11 C 0.428,-0.394 0.3,-0.487 0.14,-0.591 L 0,0 z"
                   style="fill:#ffffff;fill-opacity:1;fill-rule:nonzero;stroke:none"
                   id="path3071"
                   inkscape:connector-curvature="0" /></g><g
                 id="g3073"
                 transform="matrix(1.0300686,0,0,1.0300686,76.822444,47.401457)"><path
                   d="m 0,0 c 0.574,0.244 1.32,0.387 2.276,0.438 0.255,-1.013 1.329,-1.746 2.572,-1.749 1.316,0.003 2.428,0.829 2.599,1.926 l 0.001,0 C 7.597,0.65 7.743,0.67 7.837,0.67 c 0.009,0 0.017,0 0.025,-0.001 0.053,-0.479 0.38,-0.888 0.922,-1.155 0.518,-0.257 1.196,-0.393 1.962,-0.393 0.024,0 0.046,0.001 0.069,0.003 0.005,0.001 0.01,0.001 0.015,0.001 0.127,-0.631 0.208,-1.219 0.221,-1.585 -0.15,-0.074 -0.547,-0.177 -0.841,-0.253 L 10.197,-2.716 C 9.536,-2.887 8.79,-3.079 8.439,-3.385 7.86,-3.894 8.385,-4.926 8.94,-6.018 9.199,-6.529 9.424,-6.987 9.557,-7.395 8.338,-7.214 7.528,-6.9 6.849,-6.345 6.196,-5.811 5.66,-5.038 5.039,-4.142 4.964,-4.033 4.839,-3.967 4.705,-3.967 4.622,-3.967 4.541,-3.992 4.472,-4.04 4.383,-4.1 4.323,-4.193 4.303,-4.3 4.283,-4.409 4.307,-4.517 4.369,-4.607 L 4.407,-4.662 C 5.04,-5.575 5.587,-6.365 6.332,-6.979 7.134,-7.636 8.129,-8.027 9.463,-8.208 9.55,-8.22 9.619,-8.228 9.686,-8.236 9.684,-8.719 9.522,-9.518 8.514,-9.748 8.334,-9.788 8.139,-9.809 7.936,-9.809 7.462,-9.809 6.985,-9.7 6.54,-9.583 6.108,-9.469 5.707,-9.364 5.283,-9.364 4.803,-9.364 4.382,-9.503 3.958,-9.8 3.721,-9.963 3.181,-10.335 2.536,-10.707 L 0,0 z"
                   style="fill:#ffffff;fill-opacity:1;fill-rule:nonzero;stroke:none"
                   id="path3075"
                   inkscape:connector-curvature="0" /></g><g
                 id="g3077"
                 transform="matrix(1.0300686,0,0,1.0300686,76.961297,42.958874)"><path
                   d="m 0,0 c -0.361,0.039 -0.672,0.131 -0.904,0.268 -0.339,0.194 -0.504,0.43 -0.535,0.765 -0.008,0.109 -0.012,0.192 -0.012,0.262 0.003,0.4 0.088,0.651 0.302,0.897 0.123,0.139 0.302,0.277 0.533,0.408 L 0,0 z"
                   style="fill:#ffffff;fill-opacity:1;fill-rule:nonzero;stroke:none"
                   id="path3079"
                   inkscape:connector-curvature="0" /></g><g
                 id="g3081"
                 transform="matrix(1.0300686,0,0,1.0300686,87.888162,47.208011)"><path
                   d="m 0,0 c -0.647,0.002 -1.244,0.12 -1.649,0.323 -0.37,0.189 -0.557,0.413 -0.557,0.664 0,0.249 0.187,0.471 0.558,0.661 0.264,0.132 0.623,0.23 1.038,0.281 0.225,0.028 0.417,0.041 0.603,0.041 l 0.012,0 C 0.047,1.97 0.087,1.967 0.127,1.964 0.152,1.963 0.178,1.961 0.204,1.96 0.755,1.936 1.282,1.812 1.65,1.621 2.073,1.401 2.217,1.15 2.211,0.988 2.217,0.824 2.073,0.574 1.65,0.352 1.42,0.233 1.116,0.137 0.771,0.074 0.5,0.024 0.248,0 0.003,0 L 0,0 z"
                   style="fill:#02c54c;fill-opacity:1;fill-rule:nonzero;stroke:none"
                   id="path3083"
                   inkscape:connector-curvature="0" /></g><g
                 id="g3085"
                 transform="matrix(1.0300686,0,0,1.0300686,81.815805,46.769407)"><path
                   d="m 0,0 c -0.523,0 -1.033,0.169 -1.399,0.464 -0.347,0.284 -0.538,0.655 -0.538,1.045 0,0.386 0.191,0.757 0.539,1.045 C -1.031,2.848 -0.521,3.017 0,3.017 0.52,3.017 1.031,2.848 1.4,2.553 1.748,2.266 1.94,1.895 1.94,1.509 1.94,1.12 1.748,0.748 1.399,0.464 1.029,0.165 0.532,0 0,0"
                   style="fill:#02c54c;fill-opacity:1;fill-rule:nonzero;stroke:none"
                   id="path3087"
                   inkscape:connector-curvature="0" /></g><g
                 id="g3089"
                 transform="matrix(1.0300686,0,0,1.0300686,75.864583,50.298113)"><path
                   d="M 0,0 C 0.056,0.208 0.094,0.409 0.123,0.578 0.136,0.652 0.149,0.727 0.161,0.804 0.177,0.899 0.194,0.996 0.212,1.098 0.228,1.166 0.261,1.23 0.297,1.299 0.321,1.347 0.347,1.396 0.369,1.451 0.417,1.576 0.409,1.7 0.347,1.785 L 0.344,1.789 0.339,1.793 C 0.298,1.826 0.247,1.843 0.188,1.843 0.086,1.843 -0.015,1.793 -0.065,1.763 -0.083,1.755 -0.106,1.751 -0.131,1.747 -0.152,1.744 -0.174,1.74 -0.195,1.734 -0.314,1.696 -0.436,1.676 -0.558,1.676 c -0.09,0 -0.181,0.011 -0.271,0.032 0.061,0.073 0.14,0.116 0.217,0.158 0.037,0.019 0.072,0.038 0.104,0.06 0.083,0.042 0.168,0.084 0.252,0.134 0.064,0.038 0.148,0.09 0.225,0.162 0.018,0.016 0.047,0.026 0.074,0.037 C 0.084,2.274 0.13,2.291 0.153,2.333 0.178,2.361 0.205,2.386 0.232,2.412 0.308,2.484 0.387,2.559 0.445,2.679 0.612,2.943 0.688,3.257 0.762,3.561 0.774,3.613 0.787,3.665 0.8,3.717 0.829,3.831 0.861,3.951 0.902,4.069 0.94,3.988 0.977,3.898 1.015,3.795 1.082,3.615 1.136,3.431 1.194,3.237 1.261,3.01 1.331,2.775 1.421,2.546 1.426,2.528 1.444,2.488 1.505,2.488 c 0.01,0 0.021,10e-4 0.033,0.002 0.009,10e-4 0.018,0.002 0.027,0.002 0.018,0 0.026,-0.003 0.034,-0.022 L 1.621,2.415 1.667,2.452 c 0.114,0.091 0.242,0.103 0.351,0.103 0.044,0 0.088,-0.002 0.131,-0.004 0.045,-0.002 0.09,-0.004 0.135,-0.004 0.024,0 0.049,0.002 0.075,0.004 0.026,0.002 0.052,0.004 0.079,0.004 0.052,0 0.11,-0.007 0.164,-0.056 C 2.541,2.467 2.48,2.433 2.42,2.4 2.249,2.306 2.087,2.217 1.917,2.163 L 1.911,2.161 1.906,2.157 C 1.847,2.117 1.776,2.014 1.757,1.901 1.745,1.826 1.759,1.759 1.797,1.705 1.824,1.637 1.88,1.598 1.93,1.564 1.962,1.542 1.992,1.522 2.012,1.496 2.344,1.175 2.642,0.797 2.924,0.338 2.921,0.337 2.918,0.337 2.915,0.337 2.877,0.337 2.834,0.382 2.791,0.426 L 2.763,0.455 C 2.562,0.621 2.359,0.735 2.162,0.845 1.941,0.969 1.713,1.097 1.491,1.294 1.435,1.344 1.375,1.369 1.314,1.369 1.157,1.369 1.026,1.208 0.888,1.037 0.818,0.95 0.746,0.861 0.673,0.799 0.509,0.656 0.375,0.481 0.245,0.311 0.213,0.269 0.18,0.227 0.147,0.185 0.132,0.166 0.117,0.146 0.102,0.126 0.068,0.081 0.035,0.039 0,-0.001 L 0,0 z"
                   style="fill:#fddd2e;fill-opacity:1;fill-rule:nonzero;stroke:none"
                   id="path3091"
                   inkscape:connector-curvature="0" /></g></g></g></g></g></g></g></svg>